<?xml version="1.0" encoding="utf-8"?>
<!-- Svg Vector Icons : http://www.onlinewebfonts.com/icon -->
<!DOCTYPE svg PUBLIC "-//W3C//DTD SVG 1.1//EN" "http://www.w3.org/Graphics/SVG/1.1/DTD/svg11.dtd">
<svg version="1.1" xmlns="http://www.w3.org/2000/svg" xmlns:xlink="http://www.w3.org/1999/xlink" width="20" height="20" x="0px" y="0px" viewBox="0 0 1000 1000" enable-background="new 0 0 1000 1000" xml:space="preserve">
<metadata> Svg Vector Icons : http://www.onlinewebfonts.com/icon </metadata>
<g><g transform="translate(0.000000,512.000000) scale(0.100000,-0.100000)"><path d="M5819.9,5005.3c-1063.1-145.6-1938.5-927.1-2201-1963.5c-212.6-835.2-11.5-1685.7,559.3-2367.6c69-82.4,187.7-201.1,266.3-266.3c101.5-86.2,134.1-124.5,116.8-136c-166.6-113-551.7-258.6-833.3-316.1C3465.6-97.7,2952.3-92,2689.8-32.6c-333.3,72.8-634.1,199.2-892.7,371.6c-67,44.1-450.2,409.9-906.1,863.9L100,1990.2l7.7-2250.8c7.7-2490.2-1.9-2315.9,136-2725.8c130.3-392.7,335.2-722.2,634.1-1019.1c296.9-296.9,628.3-503.8,1011.4-632.1c425.3-141.8,241.4-132.2,2666.5-139.8c1444.3-3.8,2243.1,0,2358,13.4c1137.9,132.2,2049.6,963.5,2289.1,2089.9c55.6,264.3,61.3,747.1,11.5,1001.8C9070.6-948.2,8658.7-335.2,8051.5,57.5c-80.4,51.7-189.6,114.9-245.2,139.8c-53.7,26.8-99.6,51.7-97.7,57.5c0,5.7,57.5,55.5,124.5,107.3c218.4,166.7,475.1,471.2,628.3,745.2c47.9,84.3,84.3,128.3,113,134.1c377.4,69,614.9,178.1,839,390.8c302.7,283.5,471.3,626.4,482.7,976.9l3.8,128.3l-559.3,5.7c-511.5,3.8-559.4,7.7-568.9,38.3c-3.8,17.2-23,101.5-40.2,185.8c-103.4,480.8-346.7,921.4-708.8,1283.4c-373.5,375.5-827.5,618.7-1360,727.9C6480.7,5016.8,6009.5,5032.2,5819.9,5005.3z"/></g></g>
</svg>